{
  "accessors": [
    {
      "bufferView": 2,
      "componentType": 5126,
      "count": 2011,
      "max": [
        73.43746948242188,
        1458.97412109375,
        73.43746948242188
      ],
      "min": [
        -73.43746948242188,
        0.0,
        -73.43746948242188
      ],
      "type": "VEC3"
    },
    {
      "bufferView": 2,
      "byteOffset": 24132,
      "componentType": 5126,
      "count": 2011,
      "max": [
        0.9986296892166138,
        0.8794678449630737,
        0.9949415326118469
      ],
      "min": [
        -0.9986296892166138,
        -0.31517061591148376,
        -0.9986296892166138
      ],
      "type": "VEC3"
    },
    {
      "bufferView": 1,
      "componentType": 5126,
      "count": 2011,
      "max": [
        0.4997600018978119,
        4.6023101806640625
      ],
      "min": [
        0.00023999999393709004,
        0.5002400279045105
      ],
      "type": "VEC2"
    },
    {
      "bufferView": 1,
      "byteOffset": 16088,
      "componentType": 5126,
      "count": 2011,
      "max": [
        0.6243788599967957,
        0.7921248078346252
      ],
      "min": [
        0.0018591274274513125,
        0.0019920319318771362
      ],
      "type": "VEC2"
    },
    {
      "bufferView": 0,
      "componentType": 5125,
      "count": 2928,
      "type": "SCALAR"
    },
    {
      "bufferView": 2,
      "byteOffset": 48264,
      "componentType": 5126,
      "count": 21072,
      "max": [
        352.2492370605469,
        1594.314697265625,
        320.2161560058594
      ],
      "min": [
        -357.19970703125,
        825.4820556640625,
        -339.85833740234375
      ],
      "type": "VEC3"
    },
    {
      "bufferView": 2,
      "byteOffset": 301128,
      "componentType": 5126,
      "count": 21072,
      "max": [
        0.9986237287521362,
        0.9860658645629883,
        0.9990543723106384
      ],
      "min": [
        -0.9998183846473694,
        -0.9999345541000366,
        -0.9999452829360962
      ],
      "type": "VEC3"
    },
    {
      "bufferView": 1,
      "byteOffset": 32176,
      "componentType": 5126,
      "count": 21072,
      "max": [
        0.9452599883079529,
        0.9999300241470337
      ],
      "min": [
        0.0003699999942909926,
        0.00011999999696854502
      ],
      "type": "VEC2"
    },
    {
      "bufferView": 1,
      "byteOffset": 200752,
      "componentType": 5126,
      "count": 21072,
      "max": [
        0.931419849395752,
        0.9980080127716064
      ],
      "min": [
        0.0018591213738545775,
        0.0019920365884900093
      ],
      "type": "VEC2"
    },
    {
      "bufferView": 0,
      "byteOffset": 11712,
      "componentType": 5125,
      "count": 21360,
      "type": "SCALAR"
    }
  ],
  "asset": {
    "extras": {
      "author": "Next Spring (https://sketchfab.com/NextSpring)",
      "license": "CC-BY-4.0 (http://creativecommons.org/licenses/by/4.0/)",
      "source": "https://sketchfab.com/3d-models/realistic-palm-tree-4-free-917c18d6b2d04d33950dea6e20bc074f",
      "title": "Realistic Palm Tree 4 Free"
    },
    "generator": "Sketchfab-16.63.0",
    "version": "2.0"
  },
  "bufferViews": [
    {
      "buffer": 0,
      "byteLength": 97152,
      "name": "floatBufferViews",
      "target": 34963
    },
    {
      "buffer": 0,
      "byteLength": 369328,
      "byteOffset": 97152,
      "byteStride": 8,
      "name": "floatBufferViews",
      "target": 34962
    },
    {
      "buffer": 0,
      "byteLength": 553992,
      "byteOffset": 466480,
      "byteStride": 12,
      "name": "floatBufferViews",
      "target": 34962
    }
  ],
  "buffers": [
    {
      "byteLength": 1020472,
      "uri": "scene.bin"
    }
  ],
  "extensionsUsed": [
    "KHR_materials_specular"
  ],
  "images": [
    {
      "uri": "textures/Plam_4_Trunk_baseColor.png"
    },
    {
      "uri": "textures/Palm_4_Leaf_baseColor.png"
    }
  ],
  "materials": [
    {
      "doubleSided": true,
      "extensions": {
        "KHR_materials_specular": {
          "specularColorFactor": [
            1.0,
            1.0,
            1.0
          ],
          "specularFactor": 0.0
        }
      },
      "name": "Plam_4_Trunk",
      "pbrMetallicRoughness": {
        "baseColorTexture": {
          "index": 0
        },
        "metallicFactor": 0.0,
        "roughnessFactor": 0.6
      }
    },
    {
      "alphaCutoff": 0.3,
      "alphaMode": "MASK",
      "doubleSided": true,
      "extensions": {
        "KHR_materials_specular": {
          "specularColorFactor": [
            1.0,
            1.0,
            1.0
          ],
          "specularFactor": 0.0
        }
      },
      "name": "Palm_4_Leaf",
      "pbrMetallicRoughness": {
        "baseColorTexture": {
          "index": 1
        },
        "metallicFactor": 0.0,
        "roughnessFactor": 0.6
      }
    }
  ],
  "meshes": [
    {
      "name": "Tree_1_Plam_4_Trunk_0",
      "primitives": [
        {
          "attributes": {
            "NORMAL": 1,
            "POSITION": 0,
            "TEXCOORD_0": 2,
            "TEXCOORD_1": 3
          },
          "indices": 4,
          "material": 0,
          "mode": 4
        }
      ]
    },
    {
      "name": "Tree_1_Palm_4_Leaf_0",
      "primitives": [
        {
          "attributes": {
            "NORMAL": 6,
            "POSITION": 5,
            "TEXCOORD_0": 7,
            "TEXCOORD_1": 8
          },
          "indices": 9,
          "material": 1,
          "mode": 4
        }
      ]
    }
  ],
  "nodes": [
    {
      "children": [
        1
      ],
      "matrix": [
        1.0,
        0.0,
        0.0,
        0.0,
        0.0,
        2.220446049250313e-16,
        -1.0,
        0.0,
        0.0,
        1.0,
        2.220446049250313e-16,
        0.0,
        0.0,
        0.0,
        0.0,
        1.0
      ],
      "name": "Sketchfab_model"
    },
    {
      "children": [
        2
      ],
      "matrix": [
        0.009999999776482582,
        0.0,
        0.0,
        0.0,
        0.0,
        0.0,
        0.009999999776482582,
        0.0,
        0.0,
        -0.009999999776482582,
        0.0,
        0.0,
        0.0,
        0.0,
        0.0,
        1.0
      ],
      "name": "Palm_4_1.fbx"
    },
    {
      "children": [
        3
      ],
      "name": "RootNode"
    },
    {
      "children": [
        4,
        5
      ],
      "name": "Tree_1"
    },
    {
      "mesh": 0,
      "name": "Tree_1_Plam_4_Trunk_0"
    },
    {
      "mesh": 1,
      "name": "Tree_1_Palm_4_Leaf_0"
    }
  ],
  "samplers": [
    {
      "magFilter": 9729,
      "minFilter": 9987,
      "wrapS": 10497,
      "wrapT": 10497
    }
  ],
  "scene": 0,
  "scenes": [
    {
      "name": "Sketchfab_Scene",
      "nodes": [
        0
      ]
    }
  ],
  "textures": [
    {
      "sampler": 0,
      "source": 0
    },
    {
      "sampler": 0,
      "source": 1
    }
  ]
}
